<svg width="694" height="134" viewBox="0 0 694 134" fill="none" xmlns="http://www.w3.org/2000/svg">
<path d="M142.56 101H122.52V17.6H142.56V42.92C146.04 39.8 150.72 37.76 156.24 37.76C168.84 37.76 175.68 44.84 175.68 59.36V101H155.64V62C155.64 56.6 154.56 53.12 150.12 53.12C145.2 53.12 142.56 56.84 142.56 61.64V101ZM218.659 88.28C224.539 88.28 226.819 82.4 226.819 70.64C226.819 58.4 224.779 52.16 218.659 52.16C213.019 52.16 210.499 58.52 210.499 68.48C210.499 78.8 211.579 88.28 218.659 88.28ZM190.099 70.76C190.099 45.56 206.419 37.76 219.499 37.76C229.099 37.76 247.579 40.64 247.579 68.84C247.579 91.4 234.379 102.92 217.819 102.92C200.659 102.92 190.099 92.6 190.099 70.76ZM282.077 101H262.157V51.92L260.717 39.56H277.397L278.597 46.16C282.437 41 288.077 37.76 296.117 37.76C307.877 37.76 315.317 44.36 315.317 59V101H295.157V62.48C295.157 56.96 294.557 53.12 289.877 53.12C284.957 53.12 282.077 56.96 282.077 62.12V101ZM360.676 37.76C373.276 37.76 381.676 43.88 381.676 56.48C381.676 73.88 361.996 77.36 350.236 78.08C350.716 83.48 354.796 87.92 362.116 87.92C367.876 87.92 373.156 85.4 376.996 82.88L382.276 96.08C381.676 96.68 372.676 102.92 359.236 102.92C338.116 102.92 329.836 90.2 329.836 71.96C329.836 54.56 340.156 37.76 360.676 37.76ZM364.276 56.72C364.276 53.72 362.476 51.8 359.596 51.8C353.596 51.8 349.636 57.68 349.276 65.96C355.756 65.6 364.276 62.6 364.276 56.72ZM448.483 87.44C448.483 90.8 448.483 100.64 448.123 104.24C446.323 123.44 436.843 132.92 419.203 132.92C405.523 132.92 398.323 126.56 398.323 116.36C398.323 108.2 402.643 101.48 410.203 95.96C400.003 94.04 395.203 86.84 395.203 76.88V39.56H415.363V74.12C415.363 80.6 415.723 84.68 421.483 84.68C425.443 84.68 428.323 81.68 428.323 76.64V39.56H448.483V87.44ZM416.323 113C416.323 116 417.883 118.76 421.723 118.76C427.243 118.76 428.803 113.48 428.803 105.56V95.36C422.563 99.08 416.323 104.36 416.323 113ZM485.568 101H465.528V17.6H485.568V42.92C489.048 39.8 493.728 37.76 499.248 37.76C511.848 37.76 518.688 44.84 518.688 59.36V101H498.648V62C498.648 56.6 497.568 53.12 493.128 53.12C488.208 53.12 485.568 56.84 485.568 61.64V101ZM556.747 101H536.587V39.56H556.747V101ZM535.987 22.04C535.987 16.52 540.067 12.08 546.667 12.08C553.027 12.08 557.347 16.52 557.347 22.04C557.347 27.8 553.027 32 546.667 32C540.067 32 535.987 27.8 535.987 22.04ZM603.859 39.56H623.539C625.939 47.6 627.619 58.4 627.619 67.16C627.619 90.44 617.059 102.56 597.139 102.56C581.539 102.56 574.219 95.48 574.219 80.72V39.56H594.379V78.32C594.379 84.08 594.979 87.08 599.419 87.08C606.259 87.08 607.939 77.6 607.939 67.76C607.939 58.64 605.899 47.84 603.859 39.56ZM671.106 37.76C683.706 37.76 692.106 43.88 692.106 56.48C692.106 73.88 672.426 77.36 660.666 78.08C661.146 83.48 665.226 87.92 672.546 87.92C678.306 87.92 683.586 85.4 687.426 82.88L692.706 96.08C692.106 96.68 683.106 102.92 669.666 102.92C648.546 102.92 640.266 90.2 640.266 71.96C640.266 54.56 650.586 37.76 671.106 37.76ZM674.706 56.72C674.706 53.72 672.906 51.8 670.026 51.8C664.026 51.8 660.066 57.68 659.706 65.96C666.186 65.6 674.706 62.6 674.706 56.72Z" fill="#5C5C5C"/>
<path d="M91.8305 80.0847C91.8305 105.443 71.2736 126 45.9153 126C20.557 126 0 105.443 0 80.0847C0 54.7265 19.9322 18.1525 45.9153 0C73.322 20.2881 91.8305 54.7265 91.8305 80.0847Z" fill="#F68D33"/>
<circle cx="46.2712" cy="79.7287" r="32.7458" fill="#F6A436"/>
<circle cx="46.2712" cy="79.7287" r="17.7966" fill="#F6B53A"/>
</svg>
